<?xml version="1.0" encoding="UTF-8"?>
<svg id="Capa_2" data-name="Capa 2" xmlns="http://www.w3.org/2000/svg" viewBox="0 0 451 301">
  <defs>
    <style>
      .cls-1, .cls-2, .cls-3 {
        fill: none;
      }

      .cls-4 {
        letter-spacing: -.01em;
      }

      .cls-5 {
        letter-spacing: -.04em;
      }

      .cls-6 {
        fill: #010101;
      }

      .cls-7, .cls-8 {
        fill: #eaeaea;
      }

      .cls-9, .cls-10, .cls-11 {
        fill: #fff;
      }

      .cls-12 {
        fill: #333;
      }

      .cls-13 {
        fill: #6f1511;
      }

      .cls-14 {
        fill: #464545;
      }

      .cls-15 {
        fill: #39662b;
      }

      .cls-2 {
        stroke: #eaeaea;
      }

      .cls-2, .cls-3 {
        stroke-miterlimit: 10;
      }

      .cls-3 {
        stroke: #fff;
      }

      .cls-16 {
        letter-spacing: -.05em;
      }

      .cls-17 {
        opacity: .15;
      }

      .cls-10, .cls-11 {
        font-size: 20px;
      }

      .cls-10, .cls-8 {
        font-family: Mohave-Bold, Mohave;
        font-weight: 700;
      }

      .cls-18 {
        opacity: .65;
      }

      .cls-19 {
        opacity: .5;
      }

      .cls-11 {
        font-family: Mohave-Light, Mohave;
        font-weight: 300;
      }

      .cls-8 {
        font-size: 14px;
      }
    </style>
  </defs>
  <g id="Capa_1-2" data-name="Capa 1">
    <g class="cls-17">
      <rect class="cls-3" x=".5" y=".5" width="450" height="300"/>
      <polyline class="cls-3" points="125.5 300.5 125.5 200.5 325.5 200.5 325.5 300.5"/>
      <polyline class="cls-3" points="175.5 300.5 175.5 250.5 275.5 250.5 275.5 300.5"/>
      <path class="cls-3" d="M325.5,.5c0,55.23-44.77,100-100,100S125.5,55.73,125.5,.5"/>
      <path class="cls-3" d="M442.22,300.39c-2.29-2.29-2.29-6,0-8.28,2.29-2.29,6-2.29,8.28,0"/>
      <path class="cls-3" d="M.5,292.11c2.29-2.29,6-2.29,8.28,0s2.29,6,0,8.28"/>
      <circle class="cls-9" cx="225.5" cy="226.59" r="2.5"/>
    </g>
  </g>
  <g id="Capa_2-2" data-name="Capa 2">
    <g>
      <rect class="cls-19" x="190.5" y="250.5" width="100" height="30"/>
      <rect class="cls-18" x="160.5" y="250.5" width="30" height="30"/>
      <text class="cls-10" transform="translate(222.7 273)"><tspan x="0" y="0">Neto</tspan></text>
      <text class="cls-11" transform="translate(173.41 273)"><tspan x="0" y="0">1</tspan></text>
    </g>
    <g>
      <rect class="cls-19" x="190.5" y="90.11" width="100" height="30"/>
      <rect class="cls-18" x="160.5" y="90.11" width="30" height="30"/>
      <text class="cls-10" transform="translate(220.63 112.61)"><tspan x="0" y="0">Omar</tspan></text>
      <text class="cls-11" transform="translate(168.35 112.61)"><tspan x="0" y="0">10</tspan></text>
    </g>
    <g>
      <rect class="cls-19" x="299.92" y="170.31" width="100" height="30"/>
      <rect class="cls-18" x="269.92" y="170.31" width="30" height="30"/>
      <text class="cls-10" transform="translate(315.69 192.81)"><tspan x="0" y="0">José Luis</tspan></text>
      <text class="cls-11" transform="translate(280.58 192.81)"><tspan x="0" y="0">5</tspan></text>
    </g>
    <g>
      <rect class="cls-19" x="81.08" y="170.31" width="100" height="30"/>
      <rect class="cls-18" x="51.08" y="170.31" width="30" height="30"/>
      <text class="cls-10" transform="translate(110.04 192.81)"><tspan class="cls-4" x="0" y="0">P</tspan><tspan x="9.2" y="0">aulo</tspan></text>
      <text class="cls-11" transform="translate(61.66 192.81)"><tspan x="0" y="0">9</tspan></text>
    </g>
    <g>
      <g id="b">
        <g id="c">
          <g id="d">
            <g>
              <path class="cls-1" d="M71.85,33.14c.2-1.01,.32-2.04,.38-3.08h0c-.06,1.04-.19,2.07-.37,3.08h0Z"/>
              <path class="cls-7" d="M26.22,42.01c2.65-.17,5.96-.3,8.63-.39l1.44-.04c.5-.03,1.18,0,1.78,.2,.74-1.46,1.75-2.78,2.96-3.87-.68-1.85-1.27-3.73-1.92-5.59-.7-1.99-1.47-3.96-2.13-5.99l.03-.02c-1.63-.43-3.2-1.08-4.64-1.93-1.74,1.19-3.34,2.59-5.17,3.64-1.59,.93-3.19,1.81-4.92,2.49,.26,4.32,1.63,8.27,3.82,11.64h.12v-.14h0Zm13.55-4.5s.02-.06,.02-.12c-.02-.27-.11-.55-.06-.85,1.08,.79,.65,1.73-.61,1.76,.11-.3,.54-.6,.65-.79h0Zm-14.58-7.07s-.08,.03-.09,.06c-.02,.02,.03,.08,.06,.05-.02,.05-.12,.01-.1-.06,0-.06,.06-.1,.09-.13l.21-.18c1.55-1.28,3.25-2.41,4.98-3.41,.64-.36,1.28-.71,1.96-1.01-1.1,.98-2.3,1.82-3.53,2.63-1.14,.73-2.36,1.46-3.58,2.04h0Z"/>
              <path class="cls-7" d="M52.28,9.68c-1.65,1.38-3.52,2.46-5.25,3.74,.08,1.73,.16,3.46-.05,5.18l.32,.2c1.74,1.06,3.43,2.22,5.14,3.31,.58,.37,1.65,1.04,2.23,1.39,1.02,.65,1.92,1.41,2.81,2.17,0,0,.1,.08,.16,.14,1.29-.89,2.7-1.63,4.18-2.18,.06-.16,.13-.35,.13-.35,.89-2.45,2.17-5.78,3.12-8.21,.34-.86,.68-1.72,1.03-2.58-2.57-2.91-5.81-5.25-9.49-6.71-.04-.02-.07-.03-.11-.04-1.3,1.45-2.73,2.71-4.22,3.95h0Zm-3.65,8.98c-.14-.08-.31-.17-.44-.38-.12-.18-.1-.44-.03-.62,.1-.28,.21-.56,.39-.82,.08,.36,.04,.73,.06,1.08,.01,.04,.02,.05,.04,.07,.04,.04,.13,.1,.25,.17,.53,.28,1.03,.6,1.44,1.06-.62-.06-1.16-.28-1.7-.55h0Zm13.03,1.12c.67-2.09,1.44-4.16,2.48-6.1-.55,2.51-1.43,4.93-2.48,7.26-.15,.33-.3,.66-.4,1.01h0s-.1-.01-.1-.01c.02-.75,.3-1.45,.5-2.16h0Z"/>
              <path class="cls-7" d="M72.15,30.01l-.04,.06c-1.85-.67-3.53-1.6-5.19-2.61-1.78-1.07-3.29-2.48-5.06-3.55-1.23,.87-2.56,1.58-3.96,2.13l.16,.14c-.09,.18-.35,.65-.46,.87-.91,2.74-1.89,5.45-2.97,8.13-.36,.88-.73,1.8-1.27,2.61,1.25,.99,2.4,2.11,3.41,3.35l.02-.04c2.04,.03,4.08-.19,6.11-.02,1.82,.13,3.62,.31,5.42,.74,1.71-2.63,2.93-5.57,3.52-8.67,.19-1.01,.31-2.04,.37-3.09l-.07-.05h0Zm-14.15-2.42c.02-.11,.02-.25,.12-.43,.28-.45,1.11-.35,1.55-.19-.34,.23-.7,.33-1.05,.47-.01,0,0,0-.01,.02-.14,.37-.23,.83-.45,1.21-.17-.35-.2-.71-.16-1.08Zm-.29,12.18c2.6-.3,5.25-.21,7.82,.28-2.61,.3-5.25,.21-7.82-.28Z"/>
              <path class="cls-7" d="M56.66,41.45c-1.35-.96-2.51-2.21-3.36-3.63h-.05s0,.07,0,.07c-1.96,.5-4.08,.58-6.1,.64-1.01,0-2.01,.21-2.99,.11-.98-.1-1.94-.25-2.99-.56l-.02-.08-.09,.03s0-.02,0-.02c-.7,1.44-1.66,2.76-2.82,3.86,.99,1.77,1.75,3.71,2.07,5.69,.31,1.76,.53,3.43,.9,5.18,3.83,.9,7.97,.9,12.14-.19,.79-3.75,1.89-7.42,3.26-11l.04-.11h0Zm-16.87,.58h0s.08-.02,.08-.02c.21,.52,.39,1.05,.56,1.57,.48,1.59,.92,3.19,1.14,4.84-1.06-1.96-1.65-4.17-1.78-6.4Zm12.96-2.1c-.06-.17-.1-.33-.24-.4-.37-.12-.91-.14-1.34-.26,.48-.36,1.53-.59,1.9,.04,.24,.42,0,.84,.15,1.26-.27-.08-.39-.41-.47-.64h0Z"/>
              <path class="cls-7" d="M32.27,24.06c1.72,.46,3.38,1.18,4.9,2.12,3.01-2.57,6.01-5.18,9.32-7.38,0,0,.11-.08,.22-.15-.12-.88-.16-1.76-.17-2.65,0-.84,.03-1.69,.19-2.51l-.33-.26c-2.27-1.79-4.61-3.96-6.78-5.9-.59-.52-1.18-1.04-1.78-1.55-3.88,1.57-7.36,4.1-10.04,7.4,1.46,3.38,3.03,7.26,4.37,10.67,0,0,.05,.12,.09,.23Zm10.1-13.69c1.11,.94,2.14,1.98,2.95,3.18-.99-.77-2.34-1.94-3.32-2.75-1.1-.93-2.21-1.82-3.28-2.79,1.33,.59,2.53,1.43,3.65,2.35h0Zm-5.57,13.82c.16,0,.22-.08,.39-.19,.34-.23,.67-.46,1.05-.66-.2,.59-.57,1.07-1.14,1.36-.17,.07-.38,.05-.54,.02-.42-.08-.82-.19-1.21-.41,.48-.14,.96-.14,1.45-.13Z"/>
              <path class="cls-12" d="M60.09,42.92c-.76-.06-1.53-.15-2.29-.23-.34,.71-.67,1.42-.99,2.14-.81,1.79-1.58,3.6-2.29,5.43-.29,.73-.57,1.47-.85,2.22,.99-.27,1.97-.6,2.96-1,4.71-1.89,8.71-5.21,11.49-9.33-1.71,.48-3.45,.69-5.21,.8-.93,.06-1.87,.05-2.81-.03h0Zm-1.64,1.51c.85-.13,1.69,.01,2.45,.41-.8,.39-1.83,.22-2.45-.41Zm.19-.85c2.33-.06,4.66-.09,6.97,.26-2.3,.43-4.73,.47-6.97-.26Z"/>
              <path class="cls-12" d="M46.8,11.66c1.41-1.22,2.77-2.51,4.35-3.52,1.55-1,3.14-1.92,4.86-2.6-6.02-2.27-12.32-2.04-17.83,.1,2.29,1.47,4.47,3.11,6.69,4.68,.64,.46,1.29,.91,1.94,1.35h0Zm.1-1.99c-.98-.34-1.82-.97-2.44-1.81,1.03,.18,1.97,.87,2.44,1.81Zm-3.71-1.42c-.97-.68-2.34-1.58-3.28-2.28,1.92,.63,3.67,1.73,5.2,3.05,.51,.44,.99,.92,1.42,1.44h0l-.05,.06c-.56-.37-1.11-.75-1.66-1.13l-1.63-1.13h0Z"/>
              <path class="cls-12" d="M46.88,20.32c-3.06,1.91-5.92,4.14-8.8,6.34,.49,1.82,1.07,3.64,1.59,5.47,.51,1.82,.96,3.64,1.48,5.46,.95-.57,2-.81,3.02-.9,1.04-.09,2.06,.22,3.06,.33,.49,.07,1.77,.24,2.25,.32,1.22,.17,2.45,.31,3.69,.35,.54-1.84,.79-3.77,1.24-5.63,.4-1.79,.84-3.57,1.31-5.34-1-.78-1.98-1.5-3.08-2.2-1.96-1.35-3.81-2.86-5.77-4.2h0Zm-6.73,11.54c-.37-1.49-.73-3.03-.93-4.56,.64,1.42,1.08,2.91,1.48,4.42,.38,1.51,.69,3.03,.81,4.58-.56-1.45-.97-2.94-1.36-4.44h0Zm2.19,4.22c-.69-1.53-1.06-3.18-1.12-4.86,.81,1.47,1.2,3.18,1.12,4.86Z"/>
              <path class="cls-14" d="M53.25,37.79v.03s.05,0,.05,0l-.05-.02h0Z"/>
              <path class="cls-12" d="M26.15,26.45c1.36-1.08,2.9-1.88,4.4-2.73l-.66-2.22c-.41-1.41-1.22-4.27-1.61-5.69-.22-.8-.44-1.61-.65-2.41-2.32,2.92-4.03,6.42-4.86,10.37-.44,2.16-.6,4.27-.51,6.29,1.15-1.36,2.49-2.52,3.89-3.6Zm2.36-3.75c-.43,.65-1.1,1.06-1.87,1.15,.31-.72,1.08-1.2,1.87-1.15Zm-5.01,4.51c.3-.32,.62-.61,.95-.9,1.32-1.12,2.76-2.11,4.36-2.78-1.46,1.39-3.11,2.55-4.83,3.59-.19,.13-.58,.25-.62,.52-.05-.15,.05-.31,.15-.42h0Z"/>
              <path class="cls-12" d="M66.26,12.67c-.8,3.34-1.78,7.09-2.69,10.44,.7,.37,1.39,.74,2.06,1.14,.84,.5,1.63,1.06,2.38,1.65,1.51,1.22,2.96,2.49,4.21,4l-.07,.1,.07,.05h0c.03-.48,.04-.96,.04-1.45,.04-5.93-2.23-11.56-6-15.93h0Zm-.39,9.18c-.09,.17-.22,.4-.36,.52,0,0,.02,0,.02,.02,0,.06-.08,.05-.1,0-.08-.94,.25-1.95,.88-2.67,.09,.75-.11,1.47-.44,2.12h0Zm-1.07,.33c.46-2.5,1.14-4.94,2.02-7.32-.11,2.55-.81,5.08-2.02,7.32Z"/>
              <path class="cls-12" d="M65.52,22.38s0,0-.02,.01c0,0,.03,0,.02-.01Z"/>
              <path class="cls-12" d="M37.13,43.08c-.65-.15-1.73-.14-2.29-.2l-2.87-.21c-1.68-.13-4.08-.32-5.74-.48v-.05h-.12c3.33,5.14,8.54,8.91,14.56,10.46-1.06-1.34-1.68-3-2.18-4.6-.54-1.64-.74-3.35-1.36-4.93h0Zm-.59,4.18c-.64-.79-.94-1.82-.83-2.83,.64,.79,.94,1.82,.83,2.83Zm.03-3.24c.95,2.33,1.58,4.77,1.88,7.26-1.06-2.28-1.7-4.76-1.88-7.26h0Z"/>
              <path class="cls-6" d="M37.32,4.9c-11.17,4.59-17.64,16.87-15.06,28.66,3.43,16.5,21.94,25.77,36.94,17.61,8.11-4.36,13.24-13.4,13.16-22.56,.04-18.21-18.1-30.73-35.04-23.71h0Zm19.28,.88c3.68,1.46,6.92,3.8,9.49,6.71-.35,.86-.69,1.72-1.03,2.58-.95,2.43-2.22,5.76-3.12,8.21,0,0-.07,.19-.13,.35-1.47,.54-2.89,1.28-4.18,2.18-.06-.06-.16-.14-.16-.14-.89-.76-1.79-1.52-2.81-2.17-.58-.35-1.64-1.02-2.23-1.39-1.71-1.09-3.4-2.24-5.14-3.31l-.32-.2c.21-1.72,.13-3.45,.05-5.18,1.73-1.27,3.6-2.36,5.25-3.74,1.48-1.23,2.92-2.5,4.22-3.95,.04,.01,.07,.03,.11,.04h0Zm-.87,20.95c-.47,1.77-.91,3.55-1.31,5.34-.46,1.86-.7,3.79-1.24,5.63-1.24-.04-2.47-.18-3.69-.35-.47-.07-1.76-.25-2.25-.32-1-.11-2.02-.43-3.06-.33-1.03,.09-2.07,.33-3.02,.9-.52-1.81-.96-3.64-1.48-5.46-.52-1.84-1.1-3.65-1.59-5.47,2.87-2.2,5.73-4.43,8.8-6.34,1.96,1.34,3.81,2.85,5.77,4.2,1.1,.7,2.08,1.42,3.08,2.2h0Zm.27-21.18c-1.72,.69-3.31,1.6-4.86,2.6-1.58,1.01-2.94,2.3-4.35,3.52-.65-.44-1.29-.89-1.94-1.35-2.22-1.57-4.4-3.2-6.69-4.68,5.51-2.14,11.81-2.37,17.83-.1h0Zm-18.15,.23c.6,.51,1.19,1.03,1.78,1.55,2.17,1.94,4.51,4.11,6.78,5.9l.33,.26c-.16,.83-.19,1.68-.19,2.51,.01,.89,.05,1.77,.17,2.65-.1,.07-.22,.15-.22,.15-3.31,2.21-6.31,4.81-9.32,7.38-1.52-.94-3.17-1.66-4.9-2.12-.04-.11-.09-.23-.09-.23-1.34-3.41-2.92-7.28-4.37-10.67,2.68-3.29,6.16-5.82,10.04-7.4h0Zm-15.08,17.99c.83-3.95,2.54-7.45,4.86-10.37,.21,.8,.43,1.61,.65,2.41,.39,1.42,1.2,4.28,1.61,5.69l.66,2.22c-1.5,.85-3.04,1.66-4.4,2.73-1.4,1.09-2.73,2.25-3.89,3.6-.09-2.03,.08-4.14,.51-6.29Zm3.33,18.39c-2.18-3.37-3.56-7.33-3.82-11.64,1.73-.68,3.33-1.56,4.92-2.49,1.83-1.05,3.44-2.45,5.17-3.64,1.45,.85,3.02,1.5,4.64,1.93l-.03,.02c.66,2.03,1.43,4,2.13,5.99,.64,1.86,1.23,3.74,1.92,5.59-1.21,1.1-2.22,2.41-2.96,3.87-.6-.2-1.28-.23-1.78-.2l-1.44,.04c-2.67,.1-5.98,.23-8.63,.39v.19c1.66,.16,4.06,.35,5.74,.48l2.87,.21c.56,.06,1.64,.05,2.29,.2,.62,1.59,.82,3.29,1.36,4.93,.5,1.59,1.12,3.26,2.18,4.6-6.02-1.55-11.23-5.32-14.56-10.46h0Zm15.12,10.61c-.37-1.75-.59-3.42-.9-5.18-.32-1.98-1.08-3.92-2.07-5.69,1.16-1.1,2.12-2.42,2.82-3.86,0,0,0,.02,0,.02l.09-.03,.02,.08c1.04,.31,2,.46,2.99,.56,.97,.1,1.98-.11,2.99-.11,2.02-.05,4.14-.13,6.1-.64,0,0,0-.03,0-.06v-.03s.05,.02,.05,.02c.85,1.42,2.01,2.67,3.36,3.63l-.04,.11c-1.36,3.58-2.47,7.25-3.26,11-4.17,1.09-8.31,1.09-12.14,.19h0Zm15.4-1.27c-.99,.4-1.97,.73-2.96,1,.28-.74,.56-1.48,.85-2.22,.72-1.83,1.48-3.64,2.29-5.43,.32-.72,.65-1.43,.99-2.14,.76,.08,1.53,.17,2.29,.23,.93,.08,1.87,.09,2.81,.03,1.76-.11,3.5-.32,5.21-.8-2.78,4.12-6.78,7.44-11.49,9.33h0Zm15.23-18.34c-.6,3.11-1.81,6.05-3.52,8.67-1.79-.43-3.6-.61-5.42-.74-2.03-.17-4.07,.04-6.11,.02l-.02,.04c-1.01-1.23-2.16-2.36-3.41-3.35,.54-.81,.91-1.73,1.27-2.61,1.09-2.67,2.06-5.39,2.97-8.13,.11-.22,.37-.69,.46-.87l-.16-.14c1.4-.55,2.73-1.26,3.96-2.13,1.76,1.06,3.28,2.47,5.06,3.55,1.66,1.01,3.35,1.95,5.19,2.61l.04-.06,.07-.1c-1.25-1.51-2.7-2.79-4.21-4-.75-.6-1.53-1.16-2.38-1.65-.67-.39-1.36-.77-2.06-1.14,.91-3.35,1.89-7.1,2.69-10.44,3.77,4.37,6.04,10,6,15.93,0,.49-.01,.97-.04,1.45-.06,1.04-.19,2.07-.38,3.08h0Z"/>
              <path class="cls-6" d="M37.11,24.7c.57-.29,.94-.77,1.14-1.36-.38,.2-.71,.44-1.05,.66-.17,.11-.23,.18-.39,.19-.48-.02-.97-.02-1.45,.13,.39,.22,.79,.32,1.21,.41,.16,.03,.36,.05,.54-.02Z"/>
              <path class="cls-6" d="M48.89,18.16c-.12-.06-.21-.12-.25-.17-.02-.02-.03-.03-.04-.07-.02-.35,.02-.72-.06-1.08-.17,.27-.29,.54-.39,.82-.07,.17-.09,.44,.03,.62,.13,.21,.3,.3,.44,.38,.54,.27,1.09,.49,1.7,.55-.41-.46-.91-.78-1.44-1.06h0Z"/>
              <path class="cls-6" d="M58.61,27.46s0,0,.01-.02c.35-.14,.71-.24,1.05-.47-.43-.15-1.27-.25-1.55,.19-.1,.18-.1,.31-.12,.43-.04,.37,0,.73,.16,1.08,.21-.38,.31-.83,.45-1.21Z"/>
              <path class="cls-6" d="M53.08,39.3c-.37-.63-1.41-.4-1.9-.04,.43,.11,.97,.14,1.34,.26,.14,.07,.17,.24,.24,.4,.08,.23,.2,.56,.47,.64-.14-.43,.09-.84-.15-1.26h0Z"/>
              <path class="cls-6" d="M61.26,21.96h0c.1-.35,.25-.67,.4-1.01,1.05-2.34,1.94-4.76,2.48-7.26-1.04,1.94-1.81,4.01-2.48,6.1-.2,.71-.47,1.41-.5,2.16l.1,.02h0s0,0,0,0Z"/>
              <path class="cls-6" d="M45.33,13.55c-.82-1.2-1.85-2.25-2.95-3.18-1.12-.92-2.32-1.76-3.65-2.35,1.07,.97,2.19,1.86,3.28,2.79,.98,.81,2.32,1.98,3.32,2.75h0Z"/>
              <path class="cls-6" d="M32.31,25.77c-.68,.3-1.32,.65-1.96,1.01-1.73,1-3.44,2.13-4.98,3.41l-.21,.18s-.08,.06-.09,.13c-.01,.07,.08,.11,.1,.06-.04,.04-.08-.03-.06-.05,.02-.03,.05-.05,.09-.06,1.22-.58,2.44-1.31,3.58-2.04,1.23-.8,2.43-1.65,3.53-2.63h0Z"/>
              <path class="cls-6" d="M39.87,42.01h-.08v.02h0c.13,2.22,.72,4.43,1.78,6.4-.22-1.66-.66-3.25-1.14-4.84-.17-.53-.35-1.05-.56-1.57h0Z"/>
              <path class="cls-6" d="M57.71,39.77c2.58,.49,5.22,.58,7.82,.28-2.57-.48-5.22-.58-7.82-.28Z"/>
              <path class="cls-6" d="M39.73,36.54c-.05,.3,.04,.58,.06,.85,0,.06,0,.1-.02,.12-.12,.19-.54,.49-.65,.79,1.27-.03,1.69-.97,.61-1.76h0Z"/>
              <path class="cls-6" d="M39.23,27.3c.19,1.52,.56,3.07,.93,4.56,.39,1.5,.8,2.99,1.36,4.44-.12-1.55-.44-3.08-.81-4.58-.4-1.5-.84-2.99-1.48-4.42h0Z"/>
              <path class="cls-6" d="M42.35,36.08c.09-1.68-.31-3.38-1.12-4.86,.05,1.68,.43,3.33,1.12,4.86Z"/>
              <path class="cls-6" d="M38.46,51.28c-.3-2.49-.94-4.94-1.88-7.26,.19,2.51,.83,4.98,1.88,7.26h0Z"/>
              <path class="cls-6" d="M36.54,47.26c.11-1.01-.19-2.04-.83-2.83-.11,1.01,.19,2.04,.83,2.83Z"/>
              <path class="cls-6" d="M58.64,43.58c2.24,.72,4.68,.69,6.97,.26-2.31-.35-4.64-.32-6.97-.26Z"/>
              <path class="cls-6" d="M58.45,44.43c.63,.62,1.66,.79,2.45,.41-.77-.39-1.6-.54-2.45-.41Z"/>
              <path class="cls-6" d="M66.82,14.86c-.88,2.38-1.55,4.82-2.02,7.32,1.21-2.24,1.9-4.78,2.02-7.32Z"/>
              <path class="cls-6" d="M65.44,22.4s.1,.06,.1,0c0-.01-.01-.03-.02-.02,.14-.12,.26-.36,.36-.52,.33-.66,.53-1.38,.44-2.12-.62,.72-.96,1.73-.88,2.67h0Zm.06,0s0,0,.02-.01c.01,0-.01,.02-.02,.01Z"/>
              <path class="cls-6" d="M46.53,10.45h0c-.43-.52-.91-.99-1.42-1.44-1.53-1.32-3.28-2.41-5.2-3.05,.94,.7,2.31,1.61,3.28,2.28l1.63,1.13c.55,.38,1.09,.76,1.66,1.13l.05-.06h0Z"/>
              <path class="cls-6" d="M46.89,9.67c-.47-.94-1.4-1.63-2.44-1.81,.62,.84,1.45,1.46,2.44,1.81Z"/>
              <path class="cls-6" d="M23.97,27.12c1.72-1.04,3.37-2.2,4.83-3.59-1.61,.67-3.05,1.66-4.36,2.78-.33,.29-.65,.58-.95,.9-.1,.11-.19,.27-.15,.42,.04-.26,.43-.39,.62-.52h0Z"/>
              <path class="cls-6" d="M28.5,22.7c-.79-.05-1.55,.43-1.87,1.15,.77-.09,1.44-.5,1.87-1.15Z"/>
            </g>
          </g>
        </g>
        <g id="e">
          <g>
            <path class="cls-15" d="M12.33,5.57c.35,.49,.9,1.17,1.21,1.67,.28,.43,.5,.9,.74,1.36,.08,.13,.16,.28,.29,.43,.07,1.56,.39,3.11,.87,4.59-.03-.48-.05-.97-.07-1.46,1.26-.21,2.55-.3,3.78,.06,1.7,.51,3.19,1.71,4.1,3.22-.51-.25-1.03-.48-1.57-.66-1.42-.52-3.14-.64-4.65-.75l1.28,1.11c.83,.72,1.49,1.6,1.96,2.58,.16,.32,.29,.65,.4,.99-1.25-.95-2.76-1.5-4.17-2.06l-.32,.29c-1.06,.95-1.6,2.28-1.7,3.66-.34-1.05-.38-2.18-.16-3.26-1.78-1.08-3.23-.86-4.56,.35,.14-.31,.32-.61,.53-.88,.12-.14,.25-.32,.27-.51,.05-.59-.34-.93-.69-1.22-.33-.28-.88-.42-1.28-.57-.83-.27-1.71-.5-2.59-.48,1.11-.84,2.39-1.51,3.74-1.83,1.05-.15,2.16,.13,3.15,.49,.06,.3,.13,.62,.19,.95,.3-4.25-1-6.62-5.12-7.45-.02-.45,.11-.91,.34-1.31,.28-.5,.74-.89,1.24-1.07,1.22,0,2.06,.73,2.79,1.77h0Z"/>
            <path class="cls-13" d="M31.92,40.74c-1.49-.96-1.3-3.13-1.37-4.63-.06-1.55-.35-3.07-.94-4.44-.3-.68-.68-1.31-1.15-1.87-.99-1.19-2.46-1.94-3.61-3.04-.23-.22-.44-.45-.64-.71-.13,.39-.23,.78-.26,1.2-.04,.54,.04,1.11,.39,1.63-.57-.28-.94-.92-1.09-1.56-.3-1.25,.18-2.52,.36-3.69,.09-.55,.14-1.11,.15-1.66,.02-1.67-.35-4.58-1.55-5.99-.28-.1-.55-.2-.83-.27-.39-.11-.79-.2-1.19-.28,1.26,1.48,2.03,3.37,2.17,5.31l.21,2.62-1.41-2.23c-.48-.76-1.21-1.35-2.05-1.82-.71-.41-1.49-.73-2.29-1.04-.56,.65-.88,1.5-.93,2.39-.06,1.03,.18,2.1,.72,2.99l2,3.33-3.04-2.41c-1.92-1.54-2.97-4.04-2.7-6.47-.58-.21-1.29-.22-1.78,.16-.36,.24-.7,.55-1.04,.9-.39,.39-.53,.55-.73,1.05l-1.01,2.37-.12-2.55c-.07-1.41,.4-2.8,1.31-3.87l.02-.03c-.13-.21-.43-.44-.67-.52-.73-.3-1.53-.62-2.33-.74-1.41,2.26-2.49,5.02-1.04,7.47,.26,.52,.57,1.11,.72,1.82,.21,1.22-.2,2.36,.12,3.55,.43,2.22,1.85,4.09,3.45,5.67,.73,.69,1.47,1.43,2.33,1.96,0,0,0-.02,0-.03,0,.01,.02,.02,.02,.04,.11,.06,.22,.13,.33,.19,.99,.53,2.26,.73,3.27,1.41-.98-.33-1.98-.37-3.01-.62,1.65,2.68,3.5,5.25,5.92,7.24,1.36,1.06,3.03,1.36,4.73,1.67,1.75,.33,3.78,.74,5.06,2.09-1.25-.64-2.58-.81-3.92-.9,1.58,1.14,3.13,2.31,4.79,3.27,2.57,1.5,5.5,2.59,8.44,2.02,1.43-.29,2.89-1.04,4.37-1.42,.92-.24,1.93-.36,2.89-.22-.68-.9-1.51-1.69-2.42-2.34-1.54-1.12-3.44-1.66-5.07-2.74-2.81-1.79-4.96-4.62-5.93-7.79-.19,1.24-.41,2.46,.37,3.57h0Zm-13.06-4.94c.76,1.23,1.22,2.75,.94,4.18-.25-3.7-3.47-5.89-6.07-8.06-2.09-1.66-2.59-3.24-2.14-5.85,.19,2.53,.52,3.7,2.65,5.23,1.64,1.29,3.53,2.69,4.62,4.51h0Zm5.88-4.11c-.11,.19-.38,.22-.57,.22-1.28,.02-2.52-1.05-2.6-2.34,0-.1,0-.23,.09-.3,.02,.1,.08,.16,.13,.22,.76,.77,1.56,1.45,2.48,2.02,.14,.09,.27,.19,.47,.18h0Zm7.22,12.65c1.34,1.56,2.98,2.75,4.81,3.74-2.11-.36-4.05-1.56-5.45-3.17-1.41-1.63-2.1-3.58-3.6-5.12,1.89,.96,2.91,3.05,4.24,4.56Z"/>
            <path class="cls-6" d="M6.84,7.35l.42,.05c3.93,.43,4.92,1.98,5.62,5.25-.99-.47-2.1-.87-3.2-.79-1.92,.29-3.69,1.23-5.18,2.47l-1.29,1.13,1.65-.53c.48-.15,.98-.17,1.48-.11-1.6,1.62-2.85,3.76-2.58,6.15,.08,1.16,.89,2.34,1.07,3.4,.08,.53-.04,1.04-.08,1.62-.04,.66,0,1.32,.13,1.96,.5,2.53,2.17,4.65,4.11,6.21,.97,.78,1.96,1.55,3.15,1.97,.05,.02,.09,.02,.14,.04,1.08,3.84,4.26,8.9,8.12,9.75,1.32,.34,2.65,.37,3.97,.45,1.4,1.38,2.86,2.72,4.48,3.88,2.6,1.84,5.81,3.21,9.06,2.66,2.08-.33,3.81-1.42,5.87-1.53,.92-.05,1.8,.16,2.44,.65l2.49,1.92-1.42-2.79c-1.36-2.77-3.88-4.88-6.72-5.95-4.13-1.51-7.33-4.53-8.99-8.55,.02-.18,.04-.36,.06-.54,.23-2.52-.38-5.34-2.21-7.24-1.45-1.55-3.49-2.04-5.09-3.31,.2-.54,.42-1.08,.56-1.67,.16-.62,.24-1.27,.25-1.91,.06-1.63-.58-4.23-1.94-5.58,.63,.3,1.25,.65,1.83,.99-.52-1.24-1.12-2.6-2.12-3.52-2.14-2.12-4.79-2.61-7.58-1.78-.04-1.14-.03-2.29,.08-3.42l-.16-.21c-.06-.07-.19-.4-.23-.54-.16-.43-.34-.85-.55-1.27-.28-.58-.79-1.31-1.13-1.86-.87-1.46-2.28-2.54-4.07-2.45-2.09,.55-3.26,2.99-2.47,4.98Zm1.46-2.49c.28-.5,.74-.89,1.24-1.07,1.22,0,2.06,.73,2.79,1.77,.35,.49,.9,1.17,1.21,1.67,.28,.43,.5,.9,.74,1.36,.08,.13,.16,.28,.29,.43,.07,1.56,.39,3.11,.87,4.59-.03-.48-.05-.97-.07-1.46,1.26-.21,2.55-.3,3.78,.06,1.7,.51,3.19,1.71,4.1,3.22-.51-.25-1.03-.48-1.57-.66-1.42-.52-3.14-.64-4.65-.75l1.28,1.11c.83,.72,1.49,1.6,1.96,2.58,.16,.32,.29,.65,.4,.99-1.25-.95-2.76-1.5-4.17-2.06l-.32,.29c-1.06,.95-1.6,2.28-1.7,3.66-.34-1.05-.38-2.18-.16-3.26-1.78-1.08-3.23-.86-4.56,.35,.14-.31,.32-.61,.53-.88,.12-.14,.25-.32,.27-.51,.05-.59-.34-.93-.69-1.22-.33-.28-.88-.42-1.28-.57-.83-.27-1.71-.5-2.59-.48,1.11-.84,2.39-1.51,3.74-1.83,1.05-.15,2.16,.13,3.15,.49,.06,.3,.13,.62,.19,.95,.3-4.25-1-6.62-5.12-7.45-.02-.45,.11-.91,.34-1.31h0ZM31.92,40.74c-.78-1.12-.56-2.33-.37-3.57,.97,3.17,3.12,6,5.93,7.79,1.62,1.08,3.53,1.62,5.07,2.74,.92,.65,1.74,1.45,2.42,2.34-.96-.13-1.97-.02-2.89,.22-1.48,.38-2.93,1.13-4.37,1.42-2.94,.57-5.87-.52-8.44-2.02-1.66-.96-3.21-2.13-4.79-3.27,1.34,.09,2.67,.26,3.92,.9-1.28-1.36-3.31-1.76-5.06-2.09-1.7-.32-3.37-.61-4.73-1.67-2.42-1.99-4.27-4.55-5.92-7.24,1.03,.25,2.04,.29,3.01,.62-1.01-.68-2.28-.89-3.27-1.41-.11-.06-.22-.12-.33-.19,0-.01-.02-.02-.02-.04,0,0,0,.02,0,.03-.86-.52-1.6-1.26-2.33-1.96-1.6-1.58-3.02-3.45-3.45-5.67-.32-1.19,.09-2.33-.12-3.55-.15-.71-.45-1.29-.72-1.82-1.45-2.44-.38-5.21,1.04-7.47,.8,.12,1.6,.44,2.33,.74,.24,.08,.54,.32,.67,.52l-.02,.03c-.9,1.07-1.37,2.46-1.31,3.87l.12,2.55,1.01-2.37c.2-.5,.33-.66,.73-1.05,.34-.35,.68-.67,1.04-.9,.5-.38,1.2-.37,1.78-.16-.26,2.44,.78,4.94,2.7,6.47l3.04,2.41-2-3.33c-.54-.89-.78-1.96-.72-2.99,.06-.89,.38-1.74,.93-2.39,.8,.31,1.59,.64,2.29,1.04,.83,.47,1.57,1.06,2.05,1.82l1.41,2.23-.21-2.62c-.14-1.94-.91-3.83-2.17-5.31,.4,.07,.8,.16,1.19,.28,.28,.07,.56,.17,.83,.27,1.2,1.42,1.57,4.32,1.55,5.99,0,.56-.06,1.11-.15,1.66-.18,1.16-.65,2.44-.36,3.69,.15,.64,.52,1.28,1.09,1.56-.35-.52-.42-1.09-.39-1.63,.03-.42,.13-.81,.26-1.2,.19,.25,.41,.49,.64,.71,1.15,1.1,2.63,1.85,3.61,3.04,.47,.56,.85,1.19,1.15,1.87,.59,1.36,.88,2.89,.94,4.44,.07,1.51-.12,3.67,1.37,4.63h0Z"/>
            <path class="cls-6" d="M36.78,48.08c-2.11-.36-4.05-1.56-5.45-3.17-1.41-1.63-2.1-3.58-3.6-5.12,1.89,.96,2.91,3.05,4.24,4.56,1.34,1.56,2.98,2.75,4.81,3.74h0Z"/>
            <path class="cls-6" d="M19.8,39.98c-.25-3.7-3.47-5.89-6.07-8.06-2.09-1.66-2.59-3.24-2.14-5.85,.19,2.53,.52,3.7,2.65,5.23,1.64,1.29,3.53,2.69,4.62,4.51,.76,1.23,1.22,2.75,.94,4.18h0Z"/>
            <path class="cls-6" d="M24.17,31.92c-1.28,.02-2.52-1.05-2.6-2.34,0-.1,0-.23,.09-.3,.02,.1,.08,.16,.13,.22,.76,.77,1.56,1.45,2.48,2.02,.14,.09,.27,.19,.47,.18-.11,.19-.38,.22-.57,.22h0Z"/>
          </g>
        </g>
      </g>
      <g>
        <polygon class="cls-2" points="83.31 33.43 90.23 33.43 86.77 17.5 83.31 33.43"/>
        <polygon class="cls-2" points="153.75 33.43 160.67 33.43 157.21 17.5 153.75 33.43"/>
        <path class="cls-2" d="M196.77,15.01c-1.34,0-2.42,.44-3.24,1.33-.82,.89-1.23,2.06-1.23,3.51v15.33c0,1.45,.41,2.62,1.23,3.51,.82,.89,1.9,1.33,3.24,1.33s2.42-.44,3.24-1.33c.82-.89,1.23-2.06,1.23-3.51v-15.33c0-1.45-.41-2.62-1.23-3.51-.82-.89-1.9-1.33-3.24-1.33Z"/>
        <path class="cls-2" d="M85.69,13.56l-6.33,27.91h2.12l1.38-5.99h7.81l1.38,5.99h2.12l-6.33-27.91h-2.16Zm-2.38,19.87l3.46-15.93,3.46,15.93h-6.92Z"/>
        <polygon class="cls-2" points="99.35 13.56 97.3 13.56 97.3 41.46 107.72 41.46 107.72 39.42 99.35 39.42 99.35 13.56"/>
        <rect class="cls-2" x="110.51" y="13.56" width="2.05" height="27.91"/>
        <polygon class="cls-2" points="128.97 36.33 120.04 13.56 117.99 13.56 117.99 41.46 120.04 41.46 120.04 18.68 128.97 41.46 131.02 41.46 131.02 13.56 128.97 13.56 128.97 36.33"/>
        <polygon class="cls-2" points="136.45 41.46 147.61 41.46 147.61 39.42 138.5 39.42 138.5 28.81 146.61 28.81 146.61 26.77 138.5 26.77 138.5 15.6 147.61 15.6 147.61 13.56 136.45 13.56 136.45 41.46"/>
        <path class="cls-2" d="M156.13,13.56l-6.33,27.91h2.12l1.38-5.99h7.81l1.38,5.99h2.12l-6.33-27.91h-2.16Zm-2.38,19.87l3.46-15.93,3.46,15.93h-6.92Z"/>
        <path class="cls-2" d="M172.84,12.96c-1.95,0-3.52,.63-4.72,1.89-1.2,1.26-1.8,2.92-1.8,5v15.33c0,2.06,.6,3.72,1.8,4.99,1.2,1.27,2.77,1.9,4.72,1.9s3.54-.63,4.73-1.9c1.19-1.27,1.79-2.93,1.79-4.99v-.74h-2.05v.74c0,1.45-.41,2.62-1.23,3.51-.82,.89-1.9,1.33-3.24,1.33s-2.42-.44-3.24-1.33c-.82-.89-1.23-2.06-1.23-3.51v-15.33c0-1.45,.41-2.62,1.23-3.51,.82-.89,1.9-1.33,3.24-1.33s2.42,.44,3.24,1.33c.82,.89,1.23,2.06,1.23,3.51v.74h2.05v-.74c0-2.07-.6-3.74-1.79-5-1.19-1.26-2.77-1.89-4.73-1.89Z"/>
        <rect class="cls-2" x="183.19" y="13.56" width="2.05" height="27.91"/>
        <path class="cls-2" d="M196.77,12.96c-1.95,0-3.52,.63-4.72,1.89-1.2,1.26-1.8,2.92-1.8,5v15.33c0,2.06,.6,3.72,1.8,4.99,1.2,1.27,2.77,1.9,4.72,1.9s3.54-.63,4.73-1.9c1.19-1.27,1.79-2.93,1.79-4.99v-15.33c0-2.07-.6-3.74-1.79-5-1.19-1.26-2.77-1.89-4.73-1.89Zm4.47,22.22c0,1.45-.41,2.62-1.23,3.51-.82,.89-1.9,1.33-3.24,1.33s-2.42-.44-3.24-1.33c-.82-.89-1.23-2.06-1.23-3.51v-15.33c0-1.45,.41-2.62,1.23-3.51,.82-.89,1.9-1.33,3.24-1.33s2.42,.44,3.24,1.33c.82,.89,1.23,2.06,1.23,3.51v15.33Z"/>
        <polygon class="cls-2" points="200.68 4.62 198.56 4.62 195.91 11.02 197.51 11.02 200.68 4.62"/>
        <polygon class="cls-2" points="219.28 13.56 219.28 36.33 210.35 13.56 208.31 13.56 208.31 41.46 210.35 41.46 210.35 18.68 219.28 41.46 221.33 41.46 221.33 13.56 219.28 13.56"/>
      </g>
      <text class="cls-8" transform="translate(130.3 54.81)"><tspan class="cls-5" x="0" y="0">de nuestro </tspan><tspan class="cls-16" x="53.06" y="0">P</tspan><tspan class="cls-5" x="58.94" y="0">odcast</tspan></text>
    </g>
  </g>
</svg>