<?xml version="1.0" encoding="UTF-8"?><svg xmlns="http://www.w3.org/2000/svg" viewBox="0 0 266.92 270.06"><defs><style>.e{fill:none;}.f{fill:#eaeaea;}.g{fill:#323232;}.h{fill:#454545;}</style></defs><g id="a"/><g id="b"><g id="c"><g id="d"><g><path class="e" d="M264.21,159.24c1.03-5.33,1.69-10.75,2-16.23l-.03-.02c-.33,5.52-.99,10.94-1.97,16.26Z"/><path class="f" d="M23.87,205.94c13.97-.87,31.4-1.56,45.47-2.08l7.58-.21c2.62-.14,6.2,.02,9.38,1.07,3.89-7.67,9.22-14.62,15.6-20.38-3.59-9.73-6.71-19.67-10.09-29.45-3.67-10.46-7.74-20.87-11.2-31.54l.16-.13c-8.57-2.25-16.84-5.67-24.47-10.17-9.16,6.28-17.6,13.63-27.25,19.18-8.38,4.91-16.8,9.52-25.91,13.13,1.36,22.75,8.61,43.59,20.1,61.33h.64v-.74Zm71.4-23.68c.06-.12,.11-.3,.1-.64-.12-1.42-.58-2.88-.32-4.48,5.68,4.14,3.45,9.12-3.22,9.26,.6-1.56,2.84-3.14,3.45-4.14ZM18.45,145c-.22,.1-.42,.18-.5,.34-.11,.1,.14,.44,.33,.25-.12,.28-.62,.06-.55-.3,.05-.32,.31-.51,.48-.67l1.11-.94c8.14-6.72,17.11-12.68,26.26-17.94,3.35-1.91,6.76-3.74,10.34-5.31-5.79,5.18-12.11,9.6-18.58,13.84-6.02,3.84-12.43,7.7-18.88,10.73Z"/><path class="f" d="M161.11,35.65c-8.69,7.27-18.55,12.96-27.66,19.68,.43,9.12,.84,18.22-.26,27.28l1.71,1.04c9.18,5.61,18.06,11.69,27.07,17.43,3.08,1.96,8.67,5.48,11.74,7.34,5.35,3.43,10.09,7.42,14.78,11.42,0,0,.51,.44,.85,.73,6.82-4.71,14.24-8.6,22.01-11.46,.31-.83,.68-1.84,.68-1.84,4.71-12.91,11.41-30.47,16.43-43.26,1.78-4.54,3.59-9.07,5.42-13.59-13.53-15.34-30.61-27.64-49.99-35.35-.19-.08-.37-.14-.56-.22-6.83,7.64-14.4,14.3-22.23,20.8Zm-19.23,47.31c-.73-.41-1.63-.9-2.3-1.98-.62-.94-.54-2.33-.17-3.24,.52-1.48,1.13-2.94,2.04-4.34,.43,1.91,.22,3.86,.3,5.68,.06,.2,.11,.25,.21,.37,.19,.22,.68,.55,1.31,.87,2.78,1.46,5.44,3.15,7.58,5.57-3.25-.34-6.11-1.48-8.98-2.92Zm68.63,5.92c3.55-11.02,7.6-21.89,13.09-32.12-2.88,13.22-7.55,25.96-13.08,38.27-.79,1.75-1.57,3.46-2.1,5.3h0v.04l-.53-.11c.13-3.94,1.56-7.64,2.62-11.37Z"/><path class="f" d="M265.82,142.72l-.21,.3c-9.73-3.51-18.62-8.42-27.35-13.76-9.36-5.66-17.35-13.08-26.64-18.69-6.47,4.56-13.49,8.31-20.86,11.21l.84,.72c-.48,.97-1.83,3.45-2.42,4.59-4.79,14.42-9.94,28.73-15.66,42.82-1.9,4.65-3.85,9.48-6.67,13.77,6.61,5.21,12.64,11.12,17.98,17.63l.08-.22c10.73,.15,21.47-.99,32.19-.08,9.59,.71,19.08,1.65,28.53,3.92,9.01-13.84,15.42-29.34,18.57-45.7,.98-5.31,1.64-10.74,1.97-16.26l-.36-.26Zm-74.53-12.75c.08-.59,.11-1.31,.64-2.24,1.46-2.35,5.86-1.82,8.15-1.02-1.78,1.21-3.67,1.73-5.52,2.49-.06,.05-.02,.02-.07,.09-.73,1.97-1.23,4.35-2.35,6.36-.88-1.82-1.03-3.74-.85-5.68Zm-1.55,64.16c13.71-1.6,27.66-1.09,41.22,1.45-13.73,1.58-27.64,1.1-41.22-1.45Z"/><path class="f" d="M184.2,203c-7.13-5.05-13.22-11.65-17.69-19.13l-.26,.03c.02,.19,.04,.34,.04,.34-10.31,2.64-21.52,3.08-32.14,3.35-5.33,.02-10.61,1.12-15.74,.58-5.17-.53-10.23-1.32-15.73-2.93l-.09-.42-.47,.15s-.03-.08-.04-.11c-3.68,7.59-8.74,14.54-14.86,20.36,5.22,9.34,9.21,19.56,10.92,30,1.64,9.29,2.81,18.08,4.74,27.31,20.18,4.72,41.98,4.74,63.96-1.02,4.17-19.73,9.98-39.1,17.16-57.95l.21-.57Zm-88.86,3.04h0v-.03l.41-.06c1.11,2.74,2.05,5.51,2.93,8.28,2.55,8.38,4.85,16.79,6.02,25.51-5.58-10.34-8.7-21.99-9.36-33.7Zm68.27-11.06c-.33-.89-.52-1.75-1.24-2.13-1.95-.63-4.78-.75-7.04-1.35,2.55-1.89,8.05-3.11,9.99,.22,1.27,2.21,.05,4.4,.77,6.66-1.41-.43-2.06-2.18-2.48-3.39Z"/><path class="f" d="M55.74,111.38c9.08,2.42,17.81,6.21,25.8,11.16,15.88-13.53,31.64-27.27,49.1-38.89,0,0,.6-.4,1.15-.77-.64-4.63-.84-9.29-.9-13.97,0-4.4,.16-8.89,1.02-13.24l-1.72-1.37c-11.96-9.45-24.3-20.88-35.71-31.08-3.1-2.75-6.22-5.49-9.36-8.19-20.45,8.28-38.76,21.62-52.88,38.96,7.67,17.83,15.96,38.23,23.03,56.2,0,0,.24,.61,.47,1.19ZM108.97,39.26c5.83,4.94,11.25,10.43,15.56,16.77-5.24-4.04-12.34-10.2-17.48-14.47-5.77-4.91-11.66-9.58-17.3-14.69,7.01,3.13,13.32,7.54,19.23,12.39Zm-29.33,72.81c.82-.05,1.14-.43,2.03-.99,1.81-1.19,3.54-2.41,5.54-3.48-1.04,3.12-2.98,5.66-5.99,7.18-.92,.35-1.99,.26-2.84,.09-2.23-.43-4.31-1-6.37-2.14,2.54-.76,5.08-.73,7.63-.66Z"/><path class="g" d="M202.28,210.74c-4.03-.33-8.06-.79-12.08-1.21-1.79,3.74-3.54,7.5-5.24,11.29-4.27,9.42-8.3,18.95-12.09,28.58-1.52,3.87-3.01,7.77-4.47,11.68,5.19-1.43,10.39-3.16,15.58-5.25,24.81-9.98,45.87-27.45,60.51-49.17-8.99,2.53-18.16,3.66-27.43,4.23-4.92,.29-9.86,.27-14.78-.15Zm-8.64,7.96c4.5-.68,8.88,.06,12.92,2.14-4.19,2.03-9.62,1.15-12.92-2.14Zm.98-4.49c12.3-.32,24.55-.5,36.74,1.36-12.1,2.27-24.93,2.46-36.74-1.36Z"/><path class="g" d="M132.25,46.1c7.42-6.44,14.61-13.22,22.91-18.54,8.14-5.28,16.53-10.1,25.58-13.72-31.7-11.94-64.9-10.77-93.93,.53,12.04,7.77,23.55,16.38,35.24,24.63,3.38,2.42,6.78,4.78,10.2,7.11Zm.51-10.49c-5.17-1.81-9.59-5.11-12.83-9.51,5.44,.94,10.36,4.57,12.83,9.51Zm-19.55-7.5c-5.1-3.56-12.33-8.34-17.27-12.03,10.13,3.34,19.34,9.12,27.39,16.06,2.67,2.34,5.2,4.84,7.48,7.57h.01l-.28,.31c-2.97-1.95-5.85-3.95-8.73-5.94l-8.6-5.97Z"/><path class="g" d="M132.69,91.7c-16.13,10.06-31.2,21.83-46.35,33.41,2.59,9.61,5.64,19.16,8.39,28.84,2.7,9.58,5.06,19.19,7.78,28.74,4.99-3,10.52-4.26,15.92-4.74,5.5-.5,10.85,1.15,16.14,1.76,2.58,.35,9.34,1.28,11.84,1.66,6.42,.88,12.93,1.62,19.45,1.85,2.86-9.69,4.14-19.84,6.55-29.66,2.1-9.43,4.43-18.8,6.9-28.13-5.27-4.11-10.41-7.91-16.23-11.6-10.35-7.09-20.08-15.07-30.4-22.12Zm-35.45,60.78c-1.93-7.85-3.86-15.97-4.88-24,3.36,7.5,5.7,15.34,7.79,23.26,1.98,7.95,3.64,15.96,4.28,24.15-2.97-7.65-5.13-15.5-7.19-23.41Zm11.56,22.25c-3.62-8.07-5.6-16.76-5.88-25.6,4.26,7.77,6.34,16.75,5.88,25.6Z"/><path class="h" d="M166.23,183.73l.02,.16,.26-.03-.27-.13Z"/><path class="g" d="M23.46,123.99c7.17-5.68,15.28-9.92,23.2-14.4l-3.46-11.69c-2.17-7.45-6.41-22.51-8.48-29.99-1.17-4.23-2.3-8.47-3.42-12.72-12.24,15.39-21.24,33.83-25.6,54.63-2.31,11.37-3.16,22.47-2.71,33.16,6.07-7.16,13.1-13.26,20.47-18.99Zm12.41-19.76c-2.24,3.4-5.79,5.57-9.83,6.05,1.65-3.8,5.69-6.3,9.83-6.05Zm-26.37,23.77c1.58-1.7,3.25-3.23,4.99-4.74,6.94-5.92,14.53-11.14,22.99-14.67-7.69,7.34-16.4,13.42-25.47,18.91-1,.68-3.07,1.32-3.29,2.72-.24-.79,.28-1.64,.79-2.22Z"/><path class="g" d="M234.79,51.42c-4.24,17.6-9.37,37.35-14.19,55.01,3.68,1.93,7.31,3.9,10.87,5.99,4.44,2.61,8.58,5.56,12.52,8.69,7.97,6.42,15.6,13.12,22.2,21.09l-.37,.52,.36,.26,.03,.02c.14-2.54,.23-5.09,.21-7.65,.19-31.25-11.75-60.92-31.63-83.93Zm-2.04,48.36c-.5,.87-1.14,2.11-1.89,2.75,.04-.04,.12,.04,.11,.1,0,.33-.43,.26-.52,0-.43-4.95,1.33-10.27,4.62-14.05,.47,3.94-.59,7.72-2.32,11.19Zm-5.65,1.73c2.43-13.17,5.98-26.01,10.62-38.57-.6,13.41-4.25,26.74-10.62,38.57Z"/><path class="g" d="M230.86,102.54s-.05,.05-.08,.07c.02,.02,.15-.02,.08-.07Z"/><path class="g" d="M81.3,211.6c-3.43-.79-9.14-.75-12.07-1.05l-15.12-1.08c-8.86-.68-21.51-1.69-30.24-2.53v-.25h-.63c17.54,27.08,45.01,46.92,76.72,55.11-5.58-7.04-8.84-15.83-11.48-24.22-2.85-8.65-3.9-17.63-7.17-25.98Zm-3.11,22.01c-3.36-4.16-4.93-9.59-4.35-14.91,3.35,4.17,4.95,9.59,4.35,14.91Zm.18-17.09c4.99,12.26,8.34,25.13,9.93,38.27-5.59-12.01-8.96-25.06-9.93-38.27Z"/><path d="M82.33,10.43C23.51,34.63-10.61,99.29,2.97,161.43c18.07,86.93,115.56,135.77,194.62,92.75,42.74-22.98,69.74-70.58,69.33-118.83,.2-95.93-95.35-161.91-184.58-124.92Zm101.57,4.63c19.38,7.7,36.46,20.01,49.99,35.35-1.83,4.52-3.64,9.05-5.42,13.59-5.03,12.79-11.72,30.35-16.43,43.26,0,0-.37,1.01-.68,1.84-7.77,2.86-15.2,6.75-22.01,11.46-.34-.29-.85-.73-.85-.73-4.69-4-9.43-7.99-14.78-11.42-3.07-1.86-8.66-5.38-11.74-7.34-9.01-5.74-17.89-11.82-27.07-17.43l-1.71-1.04c1.11-9.06,.7-18.16,.26-27.28,9.11-6.71,18.97-12.41,27.66-19.68,7.82-6.5,15.4-13.15,22.23-20.8,.19,.07,.37,.14,.56,.22Zm-4.58,110.36c-2.47,9.34-4.8,18.7-6.9,28.13-2.41,9.82-3.69,19.97-6.55,29.66-6.52-.22-13.03-.96-19.45-1.85-2.49-.37-9.26-1.3-11.84-1.66-5.29-.6-10.64-2.26-16.14-1.76-5.4,.48-10.93,1.74-15.92,4.74-2.72-9.55-5.08-19.16-7.78-28.74-2.75-9.67-5.8-19.23-8.39-28.84,15.14-11.58,30.21-23.35,46.35-33.41,10.32,7.05,20.05,15.03,30.4,22.12,5.82,3.69,10.96,7.49,16.23,11.6Zm1.43-111.59c-9.05,3.62-17.44,8.44-25.58,13.72-8.3,5.31-15.49,12.1-22.91,18.54-3.42-2.32-6.82-4.69-10.2-7.11-11.7-8.25-23.2-16.85-35.24-24.63,29.03-11.3,62.23-12.47,93.93-.53Zm-95.62,1.19c3.14,2.71,6.26,5.44,9.36,8.19,11.41,10.2,23.74,21.63,35.71,31.08l1.72,1.37c-.86,4.35-1.02,8.84-1.02,13.24,.06,4.68,.26,9.34,.9,13.97-.55,.37-1.15,.77-1.15,.77-17.46,11.62-33.23,25.36-49.1,38.89-7.99-4.95-16.72-8.73-25.8-11.16-.23-.58-.47-1.19-.47-1.19-7.06-17.97-15.36-38.37-23.03-56.2,14.13-17.34,32.43-30.68,52.88-38.96ZM5.7,109.81c4.36-20.8,13.36-39.25,25.6-54.63,1.12,4.24,2.26,8.49,3.42,12.72,2.06,7.48,6.31,22.54,8.48,29.99l3.46,11.69c-7.92,4.49-16.04,8.72-23.2,14.4-7.37,5.72-14.4,11.83-20.47,18.99-.45-10.69,.4-21.79,2.71-33.16Zm17.52,96.86c-11.49-17.74-18.73-38.59-20.1-61.33,9.11-3.6,17.53-8.22,25.91-13.13,9.65-5.54,18.1-12.89,27.25-19.18,7.63,4.5,15.9,7.92,24.47,10.17l-.16,.13c3.46,10.67,7.53,21.07,11.2,31.54,3.38,9.78,6.5,19.72,10.09,29.45-6.38,5.77-11.7,12.71-15.6,20.38-3.18-1.05-6.76-1.21-9.38-1.07l-7.58,.21c-14.07,.52-31.5,1.22-45.47,2.08v.75l-.02,.25c8.74,.84,21.39,1.85,30.24,2.53l15.12,1.08c2.94,.3,8.65,.25,12.07,1.05,3.27,8.35,4.32,17.33,7.17,25.98,2.64,8.39,5.9,17.18,11.48,24.22-31.72-8.19-59.18-28.04-76.72-55.13Zm79.64,55.85c-1.93-9.24-3.09-18.02-4.74-27.31-1.71-10.45-5.7-20.66-10.92-30,6.12-5.82,11.18-12.76,14.86-20.36,.01,.04,.03,.08,.04,.11l.47-.15,.09,.42c5.5,1.61,10.56,2.4,15.73,2.93,5.13,.54,10.42-.56,15.74-.58,10.63-.27,21.83-.71,32.14-3.35,0,0-.02-.15-.04-.34l-.02-.16,.27,.13c4.47,7.49,10.57,14.08,17.69,19.13l-.21,.57c-7.18,18.85-12.99,38.22-17.16,57.95-21.98,5.76-43.77,5.74-63.96,1.02Zm81.11-6.69c-5.19,2.09-10.39,3.82-15.58,5.25,1.46-3.91,2.95-7.8,4.47-11.68,3.79-9.64,7.82-19.17,12.09-28.58,1.69-3.79,3.44-7.55,5.24-11.29,4.02,.41,8.05,.88,12.08,1.21,4.92,.42,9.85,.45,14.78,.15,9.27-.57,18.44-1.7,27.43-4.23-14.64,21.73-35.7,39.19-60.51,49.17Zm80.23-96.6c-3.15,16.36-9.56,31.86-18.57,45.7-9.45-2.27-18.94-3.21-28.53-3.92-10.72-.92-21.46,.23-32.19,.08l-.08,.22c-5.34-6.5-11.37-12.41-17.98-17.63,2.82-4.29,4.77-9.12,6.67-13.77,5.72-14.09,10.86-28.4,15.66-42.82,.59-1.14,1.94-3.61,2.42-4.59l-.84-.72c7.37-2.89,14.39-6.65,20.86-11.21,9.29,5.61,17.28,13.03,26.64,18.69,8.73,5.33,17.63,10.25,27.35,13.76l.21-.3,.37-.52c-6.59-7.97-14.22-14.68-22.2-21.09-3.94-3.14-8.08-6.09-12.52-8.69-3.55-2.08-7.19-4.05-10.87-5.99,4.82-17.66,9.95-37.41,14.19-55.01,19.88,23.01,31.82,52.68,31.63,83.93,.02,2.56-.06,5.11-.21,7.65-.31,5.48-.98,10.9-2,16.23Z"/><path d="M81.22,114.78c3.01-1.52,4.95-4.06,5.99-7.18-2,1.07-3.73,2.3-5.54,3.48-.89,.56-1.21,.93-2.03,.99-2.55-.08-5.09-.1-7.63,.66,2.06,1.14,4.14,1.71,6.37,2.14,.84,.18,1.92,.27,2.84-.09Z"/><path d="M143.28,80.31c-.63-.31-1.12-.64-1.31-.87-.1-.12-.16-.17-.21-.37-.09-1.82,.12-3.77-.3-5.68-.9,1.4-1.52,2.86-2.04,4.34-.37,.91-.45,2.3,.17,3.24,.67,1.09,1.57,1.58,2.3,1.98,2.86,1.43,5.73,2.57,8.98,2.92-2.15-2.42-4.8-4.11-7.58-5.57Z"/><path d="M194.49,129.29c.05-.08,0-.04,.07-.09,1.86-.76,3.74-1.29,5.52-2.49-2.29-.8-6.69-1.32-8.15,1.02-.52,.93-.55,1.65-.64,2.24-.19,1.94-.03,3.86,.85,5.68,1.12-2.01,1.63-4.39,2.35-6.36Z"/><path d="M165.32,191.71c-1.94-3.33-7.44-2.11-9.99-.22,2.26,.6,5.09,.72,7.04,1.35,.72,.39,.91,1.24,1.24,2.13,.42,1.22,1.07,2.97,2.48,3.39-.72-2.26,.5-4.44-.77-6.66Z"/><path d="M208.42,100.33h0c.52-1.84,1.31-3.55,2.1-5.3,5.53-12.31,10.21-25.05,13.08-38.27-5.49,10.23-9.54,21.1-13.09,32.12-1.06,3.74-2.49,7.43-2.62,11.37l.52,.11v-.04Z"/><path d="M124.53,56.03c-4.31-6.34-9.73-11.83-15.56-16.77-5.91-4.85-12.22-9.26-19.23-12.39,5.64,5.1,11.53,9.78,17.3,14.69,5.15,4.27,12.24,10.43,17.48,14.47Z"/><path d="M55.91,120.43c-3.57,1.57-6.98,3.4-10.34,5.31-9.14,5.26-18.12,11.22-26.26,17.94l-1.11,.94c-.17,.16-.43,.34-.48,.67-.07,.36,.44,.58,.55,.3-.19,.19-.44-.14-.33-.25,.08-.16,.28-.24,.5-.34,6.45-3.03,12.86-6.89,18.88-10.73,6.47-4.24,12.79-8.67,18.58-13.84Z"/><path d="M95.76,205.95l-.42,.06v.03h0c.66,11.72,3.78,23.36,9.36,33.7-1.17-8.72-3.47-17.12-6.02-25.51-.88-2.78-1.82-5.54-2.93-8.28Z"/><path d="M189.75,194.13c13.58,2.56,27.5,3.03,41.22,1.45-13.56-2.54-27.51-3.05-41.22-1.45Z"/><path d="M95.03,177.14c-.26,1.59,.2,3.05,.32,4.48,0,.34-.04,.52-.1,.64-.61,1-2.85,2.59-3.45,4.14,6.67-.14,8.9-5.12,3.22-9.26Z"/><path d="M92.36,128.48c1.02,8.03,2.95,16.15,4.88,24,2.06,7.91,4.22,15.76,7.19,23.41-.64-8.19-2.3-16.21-4.28-24.15-2.09-7.92-4.42-15.76-7.79-23.26Z"/><path d="M108.8,174.74c.46-8.85-1.62-17.83-5.88-25.6,.28,8.84,2.26,17.53,5.88,25.6Z"/><path d="M88.3,254.79c-1.59-13.14-4.95-26.01-9.93-38.27,.98,13.21,4.35,26.26,9.93,38.27Z"/><path d="M78.19,233.61c.6-5.32-1-10.74-4.35-14.91-.59,5.32,.98,10.75,4.35,14.91Z"/><path d="M194.62,214.22c11.81,3.81,24.64,3.63,36.74,1.36-12.19-1.86-24.44-1.68-36.74-1.36Z"/><path d="M193.64,218.7c3.31,3.29,8.73,4.17,12.92,2.14-4.04-2.08-8.43-2.82-12.92-2.14Z"/><path d="M237.72,62.95c-4.64,12.56-8.19,25.4-10.62,38.57,6.36-11.82,10.02-25.16,10.62-38.57Z"/><path d="M230.45,102.64c.09,.26,.51,.32,.52,0,.01-.06-.07-.14-.11-.1,.76-.64,1.39-1.88,1.89-2.75,1.73-3.48,2.79-7.26,2.32-11.19-3.29,3.78-5.05,9.1-4.62,14.05Zm.33-.03s.05-.05,.08-.07c.07,.05-.06,.09-.08,.07Z"/><path d="M130.82,39.72h-.01c-2.29-2.74-4.81-5.24-7.48-7.58-8.05-6.94-17.26-12.72-27.39-16.06,4.95,3.69,12.17,8.48,17.27,12.03l8.6,5.97c2.88,1.99,5.75,4,8.73,5.94l.28-.29Z"/><path d="M132.77,35.6c-2.47-4.95-7.38-8.57-12.83-9.51,3.24,4.41,7.66,7.71,12.83,9.51Z"/><path d="M12,127.5c9.07-5.49,17.77-11.57,25.47-18.91-8.46,3.53-16.05,8.75-22.99,14.67-1.74,1.52-3.41,3.04-4.99,4.74-.51,.59-1.02,1.43-.79,2.22,.23-1.39,2.29-2.04,3.29-2.72Z"/><path d="M35.87,104.23c-4.14-.25-8.18,2.25-9.83,6.05,4.04-.48,7.59-2.65,9.83-6.05Z"/></g></g></g></g></svg>