<?xml version="1.0" encoding="UTF-8"?><svg xmlns="http://www.w3.org/2000/svg" viewBox="0 0 239.86 271.79"><defs><style>.d{fill:#700007;}.e{fill:#376522;}</style></defs><g id="a"/><g id="b"><g id="c"><g><path class="e" d="M47.98,16.83c1.82,2.59,4.74,6.15,6.37,8.78,1.45,2.26,2.66,4.74,3.89,7.17,.4,.71,.83,1.49,1.55,2.28,.39,8.23,2.03,16.36,4.57,24.19-.14-2.55-.27-5.12-.35-7.7,6.62-1.13,13.44-1.58,19.89,.31,8.98,2.67,16.82,9,21.6,16.95-2.68-1.34-5.44-2.51-8.29-3.47-7.47-2.72-16.56-3.38-24.49-3.97l6.72,5.83c4.35,3.77,7.83,8.45,10.32,13.58,.82,1.7,1.52,3.45,2.1,5.24-6.57-4.99-14.52-7.92-21.96-10.83l-1.69,1.53c-5.59,5-8.45,12.01-8.94,19.27-1.8-5.54-1.98-11.49-.82-17.15-9.4-5.68-17-4.51-24.03,1.84,.76-1.65,1.68-3.23,2.8-4.65,.65-.76,1.3-1.66,1.41-2.7,.24-3.11-1.78-4.89-3.64-6.45-1.73-1.48-4.64-2.23-6.76-3-4.36-1.44-8.99-2.62-13.62-2.53,5.85-4.45,12.61-7.95,19.68-9.65,5.53-.78,11.39,.71,16.62,2.58,.34,1.6,.68,3.27,1.01,5.02,1.59-22.37-5.29-34.89-26.99-39.23-.08-2.35,.56-4.81,1.81-6.92,1.49-2.65,3.89-4.7,6.53-5.63,6.41,0,10.87,3.83,14.7,9.31Z"/><path class="d" d="M151.19,202.15c-7.83-5.08-6.84-16.48-7.2-24.41-.32-8.17-1.85-16.19-4.95-23.38-1.57-3.58-3.6-6.9-6.06-9.83-5.2-6.25-12.97-10.23-19.03-16.02-1.19-1.15-2.33-2.39-3.35-3.72-.67,2.05-1.2,4.12-1.37,6.33-.19,2.86,.21,5.86,2.03,8.59-2.99-1.49-4.94-4.85-5.72-8.23-1.56-6.56,.94-13.3,1.88-19.43,.47-2.9,.74-5.83,.79-8.77,.11-8.81-1.83-24.11-8.17-31.58-1.45-.54-2.92-1.03-4.39-1.42-2.06-.6-4.15-1.07-6.26-1.46,6.63,7.78,10.7,17.74,11.44,27.96l1.08,13.79-7.43-11.75c-2.52-3.99-6.39-7.09-10.78-9.59-3.73-2.15-7.84-3.86-12.08-5.5-2.93,3.41-4.62,7.9-4.91,12.57-.34,5.42,.96,11.07,3.78,15.76l10.55,17.56-16.03-12.72c-10.12-8.09-15.64-21.28-14.25-34.11-3.07-1.1-6.8-1.16-9.4,.84-1.9,1.24-3.68,2.91-5.46,4.75-2.07,2.08-2.77,2.9-3.82,5.55l-5.31,12.48-.65-13.44c-.35-7.41,2.12-14.76,6.88-20.39l.13-.15c-.68-1.1-2.28-2.34-3.54-2.76-3.83-1.59-8.05-3.27-12.28-3.92-7.44,11.88-13.11,26.47-5.46,39.34,1.39,2.76,3,5.83,3.77,9.59,1.09,6.42-1.05,12.42,.62,18.69,2.29,11.67,9.75,21.53,18.19,29.86,3.85,3.64,7.75,7.55,12.28,10.3,0-.05-.02-.1-.03-.15,.04,.07,.08,.13,.12,.2,.57,.34,1.15,.68,1.74,.98,5.23,2.77,11.91,3.87,17.25,7.45-5.14-1.76-10.44-1.96-15.87-3.28,8.69,14.14,18.43,27.65,31.17,38.13,7.16,5.61,15.98,7.14,24.91,8.81,9.23,1.74,19.9,3.88,26.65,11.02-6.61-3.39-13.58-4.27-20.66-4.76,8.31,6.01,16.48,12.19,25.23,17.23,13.53,7.92,28.96,13.63,44.47,10.64,7.55-1.54,15.21-5.47,23.01-7.48,4.84-1.27,10.15-1.88,15.21-1.18-3.6-4.72-7.93-8.89-12.76-12.34-8.11-5.88-18.14-8.75-26.71-14.42-14.8-9.45-26.12-24.34-31.22-41.04-.98,6.55-2.14,12.94,1.95,18.82Zm-68.81-26.01c3.98,6.47,6.43,14.47,4.94,22.01-1.34-19.49-18.3-31.01-31.96-42.47-11.02-8.73-13.65-17.06-11.25-30.84,1,13.34,2.72,19.51,13.95,27.54,8.62,6.82,18.62,14.16,24.32,23.75Zm31-21.68c-.57,.98-1.98,1.15-3,1.18-6.73,.09-13.25-5.55-13.68-12.34-.02-.54,.05-1.21,.46-1.59,.1,.52,.41,.83,.71,1.15,3.99,4.08,8.21,7.66,13.07,10.66,.76,.48,1.4,.98,2.45,.95Zm38.05,66.64c7.05,8.2,15.72,14.51,25.32,19.68-11.11-1.88-21.35-8.24-28.73-16.72-7.45-8.57-11.08-18.86-18.95-26.99,9.98,5.08,15.33,16.07,22.36,24.03Z"/><path d="M19.08,26.25l2.21,.28c20.72,2.24,25.91,10.45,29.62,27.67-5.2-2.46-11.04-4.57-16.85-4.16-10.12,1.55-19.45,6.48-27.3,13l-6.77,5.96,8.71-2.79c2.54-.81,5.18-.91,7.82-.59-8.43,8.52-15.01,19.79-13.57,32.39,.41,6.13,4.71,12.31,5.66,17.91,.44,2.81-.22,5.47-.42,8.55-.23,3.49,.03,6.97,.69,10.35,2.65,13.32,11.43,24.5,21.67,32.74,5.11,4.09,10.3,8.17,16.6,10.37,.24,.08,.48,.13,.72,.21,5.67,20.25,22.46,46.9,42.77,51.34,6.93,1.79,13.98,1.93,20.93,2.39,7.38,7.28,15.05,14.32,23.62,20.44,13.68,9.68,30.59,16.89,47.73,14.02,10.96-1.75,20.06-7.49,30.93-8.08,4.86-.27,9.5,.84,12.87,3.42l13.14,10.09-7.47-14.69c-7.14-14.59-20.44-25.73-35.41-31.36-21.74-7.94-38.61-23.85-47.38-45.02,.12-.94,.22-1.88,.29-2.82,1.23-13.25-2.01-28.15-11.62-38.16-7.63-8.17-18.39-10.76-26.8-17.45,1.05-2.84,2.22-5.69,2.95-8.8,.82-3.29,1.25-6.67,1.32-10.06,.34-8.57-3.07-22.31-10.24-29.4,3.33,1.6,6.56,3.43,9.63,5.23-2.75-6.55-5.91-13.69-11.18-18.54-11.28-11.19-25.22-13.76-39.95-9.36-.19-6.02-.16-12.09,.42-18l-.85-1.08c-.34-.37-.99-2.1-1.23-2.84-.85-2.26-1.78-4.5-2.89-6.69-1.47-3.06-4.16-6.91-5.95-9.8C48.93,5.21,41.5-.48,32.08,.03c-11.03,2.88-17.17,15.73-13,26.22Zm7.67-13.1c1.49-2.65,3.89-4.7,6.53-5.63,6.41,0,10.87,3.83,14.7,9.31,1.82,2.59,4.74,6.15,6.37,8.78,1.45,2.26,2.66,4.74,3.89,7.17,.4,.71,.83,1.49,1.55,2.28,.39,8.23,2.03,16.36,4.57,24.19-.14-2.55-.27-5.12-.35-7.7,6.62-1.13,13.44-1.58,19.89,.31,8.98,2.67,16.82,9,21.6,16.95-2.68-1.34-5.44-2.51-8.29-3.47-7.47-2.72-16.56-3.38-24.49-3.97l6.72,5.83c4.35,3.77,7.83,8.45,10.32,13.58,.82,1.7,1.52,3.45,2.1,5.24-6.57-4.99-14.52-7.92-21.96-10.83l-1.69,1.53c-5.59,5-8.45,12.01-8.94,19.27-1.8-5.54-1.98-11.49-.82-17.15-9.4-5.68-17-4.51-24.03,1.84,.76-1.65,1.68-3.23,2.8-4.65,.65-.76,1.3-1.66,1.41-2.7,.24-3.11-1.78-4.89-3.64-6.45-1.73-1.48-4.64-2.23-6.76-3-4.36-1.44-8.99-2.62-13.62-2.53,5.85-4.45,12.61-7.95,19.68-9.65,5.53-.78,11.39,.71,16.62,2.58,.34,1.6,.68,3.27,1.01,5.02,1.59-22.37-5.29-34.89-26.99-39.23-.08-2.35,.56-4.81,1.81-6.92Zm124.44,189c-4.09-5.88-2.93-12.26-1.95-18.82,5.1,16.7,16.42,31.59,31.22,41.04,8.56,5.67,18.6,8.54,26.71,14.42,4.83,3.45,9.16,7.62,12.76,12.34-5.06-.7-10.37-.09-15.21,1.18-7.81,2.01-15.46,5.94-23.01,7.48-15.51,2.99-30.94-2.72-44.47-10.64-8.75-5.04-16.92-11.22-25.23-17.23,7.08,.49,14.05,1.38,20.66,4.76-6.75-7.14-17.43-9.28-26.65-11.02-8.93-1.67-17.75-3.2-24.91-8.81-12.74-10.47-22.48-23.99-31.17-38.13,5.43,1.32,10.73,1.52,15.87,3.28-5.34-3.58-12.01-4.68-17.25-7.45-.59-.3-1.17-.64-1.74-.98-.04-.07-.08-.13-.12-.2,0,.05,.02,.1,.03,.15-4.53-2.75-8.43-6.66-12.28-10.3-8.44-8.33-15.9-18.19-18.19-29.86-1.67-6.28,.47-12.28-.62-18.69-.77-3.76-2.38-6.82-3.77-9.59-7.65-12.87-1.98-27.46,5.46-39.34,4.23,.65,8.45,2.33,12.28,3.92,1.26,.43,2.86,1.66,3.54,2.76l-.13,.15c-4.76,5.63-7.24,12.98-6.88,20.39l.65,13.44,5.31-12.48c1.05-2.65,1.75-3.47,3.82-5.55,1.78-1.84,3.56-3.51,5.46-4.75,2.61-2.01,6.33-1.94,9.4-.84-1.39,12.83,4.13,26.02,14.25,34.11l16.03,12.72-10.55-17.56c-2.82-4.69-4.12-10.34-3.78-15.76,.29-4.67,1.98-9.15,4.91-12.57,4.24,1.64,8.35,3.35,12.08,5.5,4.39,2.5,8.26,5.6,10.78,9.59l7.43,11.75-1.08-13.79c-.74-10.22-4.81-20.18-11.44-27.96,2.11,.38,4.2,.86,6.26,1.46,1.47,.39,2.93,.87,4.39,1.42,6.33,7.47,8.28,22.77,8.17,31.58-.04,2.94-.32,5.86-.79,8.77-.94,6.13-3.45,12.87-1.88,19.43,.78,3.38,2.73,6.74,5.72,8.23-1.83-2.73-2.22-5.73-2.03-8.59,.17-2.21,.7-4.28,1.37-6.33,1.02,1.33,2.16,2.57,3.35,3.72,6.06,5.79,13.83,9.77,19.03,16.02,2.47,2.94,4.5,6.25,6.06,9.83,3.1,7.18,4.62,15.21,4.95,23.38,.36,7.93-.63,19.33,7.2,24.41Z"/><path d="M176.76,240.78c-11.11-1.88-21.35-8.24-28.73-16.72-7.45-8.57-11.08-18.86-18.95-26.99,9.98,5.08,15.33,16.07,22.36,24.03,7.05,8.2,15.72,14.51,25.32,19.68Z"/><path d="M87.33,198.15c-1.34-19.49-18.3-31.01-31.96-42.47-11.02-8.73-13.65-17.06-11.25-30.84,1,13.34,2.72,19.51,13.95,27.54,8.62,6.82,18.62,14.16,24.32,23.75,3.98,6.47,6.43,14.47,4.94,22.01Z"/><path d="M110.38,155.64c-6.73,.09-13.25-5.55-13.68-12.34-.02-.54,.05-1.21,.46-1.59,.1,.52,.41,.83,.71,1.15,3.99,4.08,8.21,7.66,13.07,10.66,.76,.48,1.4,.98,2.45,.95-.57,.98-1.98,1.15-3,1.18Z"/></g></g></g></svg>